<svg t="1656036186550" class="icon" viewBox="0 0 1024 1024" version="1.1" xmlns="http://www.w3.org/2000/svg" p-id="11802" width="200" height="200"><path d="M512 384a128 128 0 1 0 0 256 128 128 0 0 0 0-256z m-213.333333 128a213.333333 213.333333 0 1 1 426.666666 0 213.333333 213.333333 0 0 1-426.666666 0zM512 85.333333a42.666667 42.666667 0 0 1 42.666667 42.666667v85.333333a42.666667 42.666667 0 1 1-85.333334 0V128a42.666667 42.666667 0 0 1 42.666667-42.666667zM180.138667 180.138667a42.666667 42.666667 0 0 1 60.330666 0l30.165334 30.165333A42.666667 42.666667 0 1 1 210.346667 270.634667l-30.165334-30.165334a42.666667 42.666667 0 0 1 0-60.330666z m663.722666 0a42.666667 42.666667 0 0 1 0 60.330666l-30.165333 30.165334a42.666667 42.666667 0 1 1-60.330667-60.330667l30.165334-30.165333a42.666667 42.666667 0 0 1 60.330666 0zM85.333333 512a42.666667 42.666667 0 0 1 42.666667-42.666667h85.333333a42.666667 42.666667 0 1 1 0 85.333334H128a42.666667 42.666667 0 0 1-42.666667-42.666667z m682.666667 0a42.666667 42.666667 0 0 1 42.666667-42.666667h85.333333a42.666667 42.666667 0 1 1 0 85.333334h-85.333333a42.666667 42.666667 0 0 1-42.666667-42.666667zM270.634667 753.365333a42.666667 42.666667 0 0 1 0 60.330667l-30.165334 30.165333a42.666667 42.666667 0 0 1-60.330666-60.330666l30.165333-30.165334a42.666667 42.666667 0 0 1 60.330667 0z m482.730666 0a42.666667 42.666667 0 0 1 60.330667 0l30.165333 30.165334a42.666667 42.666667 0 0 1-60.330666 60.330666l-30.165334-30.165333a42.666667 42.666667 0 0 1 0-60.330667zM512 768a42.666667 42.666667 0 0 1 42.666667 42.666667v85.333333a42.666667 42.666667 0 1 1-85.333334 0v-85.333333a42.666667 42.666667 0 0 1 42.666667-42.666667z" fill="#009688" p-id="11803"></path></svg>