<?xml version="1.0" standalone="no"?><!DOCTYPE svg PUBLIC "-//W3C//DTD SVG 1.1//EN" "http://www.w3.org/Graphics/SVG/1.1/DTD/svg11.dtd"><svg t="1655913359855" class="icon" viewBox="0 0 1024 1024" version="1.1" xmlns="http://www.w3.org/2000/svg" p-id="2059" xmlns:xlink="http://www.w3.org/1999/xlink" width="200" height="200"><defs><style type="text/css"></style></defs><path d="M154.2144 784.1792c-1.024 0-1.8432-0.2048-2.8672-0.4096-1.2288-0.4096-29.9008-8.8064-36.4544-33.9968-5.3248-20.2752 5.5296-43.8272 31.9488-70.2464 43.008-42.8032 110.592-56.5248 159.744-60.2112 76.8-5.9392 149.7088-30.9248 211.1488-72.2944 84.992-57.344 188.416-167.1168 198.656-364.9536 0.2048-5.7344 5.12-10.0352 10.8544-9.6256 5.7344 0.2048 10.0352 5.12 9.6256 10.8544-4.7104 91.3408-28.8768 172.6464-71.8848 241.8688-33.9968 54.4768-79.6672 101.376-135.7824 139.264-64.3072 43.4176-140.6976 69.4272-220.9792 75.776-45.6704 3.4816-108.1344 15.9744-146.8416 54.4768-20.48 20.48-29.696 38.0928-26.624 50.5856 3.4816 13.9264 22.1184 19.6608 22.3232 19.6608 5.3248 1.6384 8.6016 7.3728 6.9632 12.6976-1.2288 3.6864-5.3248 6.5536-9.8304 6.5536z" fill="#009688" p-id="2060"></path><path d="M745.8816 396.0832c-1.024 0-2.2528-0.2048-3.2768-0.6144-5.3248-1.8432-8.192-7.7824-6.3488-13.1072 39.1168-112.2304 37.2736-193.536 28.8768-241.8688-9.0112-52.224-27.4432-78.2336-27.648-78.6432-3.2768-4.5056-2.2528-11.0592 2.2528-14.336 4.5056-3.2768 10.8544-2.2528 14.336 2.2528 0.8192 1.2288 20.8896 29.2864 30.9248 85.4016 9.0112 50.9952 11.264 136.3968-29.4912 253.7472-1.4336 4.5056-5.3248 7.168-9.6256 7.168zM779.6736 459.776c-1.6384 0-3.2768-0.4096-4.7104-1.2288-4.9152-2.6624-6.9632-8.8064-4.3008-13.9264 55.296-105.2672 65.7408-185.9584 64.512-235.1104-1.2288-52.8384-15.5648-81.5104-15.5648-81.7152-2.6624-5.12-0.6144-11.264 4.3008-13.7216 4.9152-2.6624 11.264-0.6144 13.7216 4.3008 0.6144 1.2288 16.384 31.9488 18.0224 89.088 1.4336 51.8144-9.0112 136.6016-66.9696 246.5792-1.8432 3.6864-5.3248 5.7344-9.0112 5.7344z" fill="#009688" p-id="2061"></path><path d="M561.5616 725.8112c-4.096 0-8.192-2.6624-9.6256-6.7584-1.8432-5.3248 0.8192-11.264 6.144-13.1072 177.152-63.8976 258.2528-168.96 294.912-245.76 39.7312-82.944 37.888-150.9376 37.888-151.7568-0.2048-5.7344 4.3008-10.4448 9.8304-10.6496 5.5296-0.2048 10.4448 4.3008 10.6496 9.8304 0 3.072 2.048 73.9328-39.936 161.1776-24.576 51.2-58.9824 97.28-102.6048 137.216-54.272 49.7664-122.88 89.7024-203.776 118.784-1.2288 0.8192-2.2528 1.024-3.4816 1.024zM357.9904 910.1312h-0.8192c-5.7344-0.4096-9.8304-5.3248-9.4208-11.0592 5.7344-68.4032-7.7824-115.9168-39.936-141.312-49.9712-39.3216-130.048-13.312-130.8672-12.9024-5.3248 1.8432-11.264-1.024-12.9024-6.5536-1.8432-5.3248 1.024-11.264 6.5536-12.9024 3.6864-1.2288 91.3408-29.696 149.9136 16.384 38.0928 29.9008 54.0672 83.3536 47.7184 159.1296-0.4096 5.12-4.9152 9.216-10.24 9.216zM341.6064 981.8112h-2.048c-5.7344-0.4096-10.0352-5.12-9.6256-10.8544 0.4096-5.7344 5.12-10.0352 10.8544-9.6256 3.8912 0.2048 8.3968-1.024 9.216-2.048 0 0 0.2048-1.8432-2.048-6.3488-5.12-10.24-15.5648-17.6128-28.2624-19.8656-14.7456-2.4576-25.1904-1.2288-29.0816 3.4816-4.5056 5.3248-2.048 15.9744-0.8192 19.2512 1.8432 5.3248-0.8192 11.264-6.144 13.1072-5.3248 1.8432-11.0592-0.8192-13.1072-6.144-0.8192-2.4576-8.3968-24.1664 4.3008-39.5264 9.216-11.0592 25.3952-14.5408 48.3328-10.6496 19.0464 3.2768 35.2256 14.9504 43.008 30.9248 6.5536 13.1072 3.8912 21.7088 0.6144 26.8288-6.3488 10.4448-19.6608 11.4688-25.1904 11.4688z" fill="#009688" p-id="2062"></path><path d="M547.2256 960.3072l3.6864-21.9136c-1.2288-3.4816-15.1552-30.72-123.4944-37.2736-5.7344-0.4096-10.0352-5.12-9.6256-10.8544 0.4096-5.7344 5.12-10.0352 10.8544-9.6256 92.5696 5.7344 125.3376 26.4192 136.6016 41.7792 31.1296-22.528 84.992-63.2832 117.3504-94.6176-45.056 15.5648-110.1824 30.5152-141.312 11.0592-12.4928-7.7824-19.0464-20.0704-19.0464-36.0448v-1.4336c8.6016-60.6208-23.7568-86.4256-25.1904-87.4496a10.15808 10.15808 0 0 1-1.8432-14.336c3.4816-4.5056 9.8304-5.3248 14.336-2.048 1.8432 1.2288 43.2128 33.3824 33.1776 105.8816 0.2048 8.3968 3.072 14.1312 9.4208 17.8176 30.3104 18.6368 121.6512-8.3968 160.1536-27.648l27.648-13.7216-13.9264 27.4432c-20.0704 39.936-144.7936 128.8192-158.9248 138.6496l-19.8656 14.336zM231.8336 619.3152c-1.8432 0-3.6864-0.4096-5.3248-1.4336-5.7344-3.4816-55.7056-34.6112-54.4768-71.0656 0.6144-17.6128 12.6976-32.3584 35.6352-43.8272 88.4736-44.4416 177.7664-114.8928 168.96-300.8512-0.2048-5.7344 4.096-10.4448 9.8304-10.6496 5.7344-0.2048 10.4448 4.096 10.6496 9.8304 4.3008 91.9552-14.7456 167.3216-56.7296 223.6416-36.0448 48.3328-82.7392 75.9808-123.6992 96.4608-15.7696 7.9872-24.1664 16.7936-24.3712 26.4192-0.8192 20.8896 32.768 45.6704 44.6464 52.8384 4.9152 2.8672 6.3488 9.216 3.4816 14.1312-1.6384 2.6624-5.12 4.5056-8.6016 4.5056zM344.6784 508.3136c-2.6624 0-5.12-1.024-7.168-3.072-4.096-3.8912-4.096-10.4448 0-14.5408 73.3184-73.9328 102.6048-138.6496 114.2784-179.8144 12.6976-44.4416 7.9872-72.0896 7.9872-72.2944-1.024-5.5296 2.6624-10.8544 8.192-11.8784s10.8544 2.6624 11.8784 8.192c0.8192 4.9152 20.2752 121.0368-128 270.336-1.8432 2.048-4.5056 3.072-7.168 3.072z" fill="#009688" p-id="2063"></path><path d="M347.3408 571.8016c-3.072 0-6.144-1.4336-8.192-4.096-3.4816-4.5056-2.4576-10.8544 2.048-14.336 160.3584-119.6032 158.5152-230.4 158.5152-231.424-0.2048-5.7344 4.3008-10.4448 9.8304-10.6496 5.7344-0.2048 10.4448 4.3008 10.6496 9.8304 0.2048 4.9152 2.048 122.6752-166.7072 248.6272-1.8432 1.4336-4.096 2.048-6.144 2.048zM310.4768 901.12h-2.048c-5.7344-0.4096-10.0352-5.12-9.6256-10.8544 0.4096-5.7344 5.12-10.0352 10.8544-9.6256 3.8912 0.2048 8.3968-1.024 9.216-2.048 0 0 0.2048-1.8432-2.048-6.3488-5.12-10.24-15.5648-17.6128-28.2624-19.8656-14.7456-2.4576-25.1904-1.2288-29.0816 3.4816-4.5056 5.5296-1.8432 16.5888-0.8192 19.2512 2.048 5.3248-0.8192 11.264-6.144 13.1072-5.3248 2.048-11.264-0.8192-13.1072-6.144-0.8192-2.4576-8.3968-24.1664 4.3008-39.5264 9.216-11.0592 25.3952-14.5408 48.3328-10.6496 19.0464 3.2768 35.2256 14.9504 43.008 30.9248 6.5536 13.1072 3.8912 21.7088 0.6144 26.8288-6.3488 10.4448-19.6608 11.4688-25.1904 11.4688z" fill="#009688" p-id="2064"></path></svg>